<?xml version="1.0" encoding="utf-8"?>
<!-- Generator: Adobe Illustrator 15.0.0, SVG Export Plug-In . SVG Version: 6.00 Build 0)  -->
<!DOCTYPE svg PUBLIC "-//W3C//DTD SVG 1.1//EN" "http://www.w3.org/Graphics/SVG/1.1/DTD/svg11.dtd">
<svg fill="rgb(102, 100, 100)" version="1.1" id="Layer_1" xmlns="http://www.w3.org/2000/svg" xmlns:xlink="http://www.w3.org/1999/xlink" x="0px" y="0px"
	 width="48px" height="48px" viewBox="0 0 48 48" enable-background="new 0 0 48 48" xml:space="preserve">
<g>
	<path d="M35,38.25H13c-2.757,0-5-2.243-5-5v-22c0-0.553,0.447-1,1-1h30c0.553,0,1,0.447,1,1v22C40,36.007,37.757,38.25,35,38.25z
		 M10,12.25v21c0,1.654,1.346,3,3,3h22c1.654,0,3-1.346,3-3v-21H10z"/>
</g>
<g>
	<path d="M9,20H5c-0.553,0-1-0.447-1-1s0.447-1,1-1h4c0.553,0,1,0.447,1,1S9.553,20,9,20z"/>
</g>
<g>
	<path d="M43,17.583h-4c-0.553,0-1-0.447-1-1s0.447-1,1-1h4c0.553,0,1,0.447,1,1S43.553,17.583,43,17.583z"/>
</g>
<g>
	<path d="M41,12.25H7c-0.553,0-1-0.447-1-1s0.447-1,1-1h34c0.553,0,1,0.447,1,1S41.553,12.25,41,12.25z"/>
</g>
<g>
	<path d="M28,12.25c-0.553,0-1-0.447-1-1c0-1.654-1.346-3-3-3c-1.654,0-3,1.346-3,3c0,0.553-0.447,1-1,1s-1-0.447-1-1
		c0-2.757,2.243-5,5-5s5,2.243,5,5C29,11.803,28.553,12.25,28,12.25z"/>
</g>
</svg>
