<?xml version="1.0" ?><!DOCTYPE svg  PUBLIC '-//W3C//DTD SVG 1.1//EN'  'http://www.w3.org/Graphics/SVG/1.1/DTD/svg11.dtd'><svg fill="rgb(62, 62, 62)" enable-background="new 0 0 24 24" height="24px" id="Layer_1" version="1.1" viewBox="0 0 24 24" width="24px" xml:space="preserve" xmlns="http://www.w3.org/2000/svg" xmlns:xlink="http://www.w3.org/1999/xlink"><path d="M18.814,18.648c-1.141,1.215-1.933,1.379-2.787,1.379c-0.823,0-1.648-0.193-2.472-0.385  c-0.823-0.16-1.647-0.354-2.503-0.354c-0.602,0-1.139,0.096-2.153,0.738l-0.063-0.066c1.394-1.119,2.598-2.197,2.598-4.217  c0-0.586-0.049-1.396-0.173-1.396h3.732l-0.594-3.193h-4.188C9.027,7.961,8.994,7.91,8.994,6.938c0-1.793,1.267-3.059,3.104-3.059  c3.23,0,3.312,3.02,3.405,4.082h4.278C19.81,2.637,16.913,0,12.129,0C6.807,0,4.02,3.234,4.02,6.629  c0,1.787,0.708,3.461,1.319,4.525H3.285l0.564,3.193h2.85c0.271,0,0.458,0.957,0.458,1.555c0,2.344-1.807,4.031-3.58,5.186L5.542,24  c1.234-0.961,2.503-1.25,3.642-1.25c1.396,0,2.218,0.301,3.137,0.623c0.888,0.32,1.869,0.568,3.453,0.568  c1.615,0,3.422-0.58,4.941-2.055L18.814,18.648z"/></svg>
